<?xml version="1.0" encoding="utf-8"?>
<!-- Uploaded to: SVG Repo, www.svgrepo.com, Generator: SVG Repo Mixer Tools -->
<!DOCTYPE svg PUBLIC "-//W3C//DTD SVG 1.1//EN" "http://www.w3.org/Graphics/SVG/1.1/DTD/svg11.dtd">
<svg fill="#000000" width="800px" height="800px" viewBox="0 0 1000 1000" version="1.1" xmlns="http://www.w3.org/2000/svg" xmlns:xlink="http://www.w3.org/1999/xlink"  enable-background="new 0 0 1000 1000" xml:space="preserve">

<g>
<g transform="translate(0.000000,512.000000) scale(0.100000,-0.100000)">
<path d="M2704.2,4987.1c-34.5-34.5-36.4-57.4-28.7-245.1c24.9-505.5,34.5-988,23-1020.6c-24.9-68.9-95.7-65.1-245.1,9.6c-130.2,65.1-139.8,67-183.8,38.3c-24.9-15.3-46-46-46-67c0-21.1,53.6-281.5,118.7-580.2l118.7-540l11.5-651l11.5-651l90-268.1c162.8-478.7,344.7-781.2,633.8-1058.9c86.2-82.4,222.1-191.5,304.4-243.2l149.4-93.8l-13.4-97.6c-5.7-51.7-15.3-101.5-19.1-107.2c-3.8-7.6-134-17.2-289.1-23c-162.7-5.8-327.4-23-388.7-40.2c-162.8-45.9-361.9-155.1-484.4-266.1c-151.3-137.9-1106.7-1401.6-1192.9-1577.8c-97.7-199.1-122.5-365.7-122.5-802.3c0-430.8,24.9-597.4,124.5-802.3c74.7-155.1,183.8-293,321.7-405.9c99.6-82.3,291-187.6,382.9-208.7l51.7-11.5v407.8c0,226,9.6,442.3,19.2,480.6c24.9,88.1,126.4,178.1,218.3,195.3c107.2,21.1,227.8-44.1,277.6-149.4c36.4-74.7,40.2-114.9,40.2-534.2V-4780h1876.4h1876.4v474.9c0,434.6,3.8,478.7,38.3,534.2c74.7,124.5,201,162.8,333.2,103.4c158.9-68.9,164.7-91.9,164.7-637.6V-4780l63.2,11.5c285.3,49.8,520.8,170.4,704.6,365.7c147.4,157,208.7,256.6,279.6,457.6c53.6,149.4,53.6,155.1,53.6,630c0,409.8-5.7,494-34.5,591.7c-51.7,164.7-132.1,314-243.2,453.8l-97.6,120.6l-329.4,1.9c-298.7,1.9-344.6,7.6-497.8,53.6c-698.9,214.5-1166.1,723.8-1319.3,1439.9c-40.2,189.6-28.7,562.9,21.1,765.9c49.8,195.3,155.1,432.7,264.2,597.4c164.7,248.9,497.8,536.1,752.5,647.2c47.9,21.1,91.9,46,99.6,57.4c7.6,9.6,15.3,394.4,13.4,852.1c0,917.2-9.6,1041.6-109.1,1250.3c-151.3,323.6-419.3,545.7-760.2,635.7c-91.9,23-250.8,28.7-871.2,30.6h-756.3l-170.4,220.2c-93.8,120.6-189.6,233.6-214.5,248.9c-57.4,38.3-113,9.6-151.3-78.5c-24.9-63.2-51.7-78.5-122.5-67c-15.3,1.9-122.5,82.3-239.3,180C2771.2,5052.2,2769.3,5052.2,2704.2,4987.1z"/>
<path d="M7154.1,1209.3c-93.8-34.5-160.8-90-206.8-174.2c-40.2-76.6-42.1-107.2-47.9-553.4l-7.7-472.9L6409.2,3c-474.8-5.7-484.4-5.7-551.4-51.7C5608.9-221,5645.3-575.2,5922.9-692c57.4-23,158.9-28.7,520.8-28.7h448l7.7-472.9c5.7-517,9.6-534.2,124.5-639.5c80.4-76.6,126.4-93.8,239.3-93.8c124.5,0,212.5,42.1,291.1,139.8l59.3,74.7l5.7,495.9l5.7,495.9h459.5c490.2,0,545.7,9.6,647.2,101.5c61.3,57.4,116.8,180,116.8,262.3c0,134-113,296.8-235.5,342.7c-32.6,13.4-237.4,21.1-520.8,21.1h-467.2l-5.7,494c-5.7,492.1-5.7,495.9-53.6,564.9c-55.5,82.3-208.7,166.6-294.9,164.7C7238.3,1230.4,7186.6,1220.8,7154.1,1209.3z"/>
</g>
</g>
</svg>